<?xml version="1.0" encoding="UTF-8"?>
<svg id="Layer_2" data-name="Layer 2" xmlns="http://www.w3.org/2000/svg" viewBox="0 0 1920 1080">
  <defs>
    <style>
      .cls-1 {
        fill: #fff;
        stroke-width: 0px;
      }
    </style>
  </defs>
  <g>
    <path id="_1_tax" data-name="1 tax" class="cls-1" d="m710.47,681.48c0,.63-.03,1.25-.09,1.86-1.06,10.72-11.43,17.99-22.01,15.95-1.44-.28-2.88-.55-4.33-.82-36.21-6.68-74.66-10.27-114.51-10.27-45.45,0-89.09,3.08-129.65,11.79-4.76,1.02-6.66-2.14-2.25-4.2,49.7-23.23,96.98-39.42,182.75-37.81,22.96.43,45.4,2.24,67.13,5.31,2.73.39,5.46.79,8.17,1.22,8.09,1.27,14.41,7.94,14.77,16.11.01.28.02.56.02.85Z"/>
    <path id="_2_tax" data-name="2 tax" class="cls-1" d="m670.35,613.65c0,5.26-2.45,9.95-6.28,12.99-2.41,1.91-5,2.4-8.52,2.81-1.06.12-2.14,0-3.22,0-1.2,0-2.39,0-3.59.01-69.77.32-137.98,10-181.48,30.78-2.36,1.13-4.47-1.92-2.58-3.74,35.43-34.12,104.03-57.48,183.22-58.33,1.48-.02,2.95-.03,4.43-.03.74,0,1.48,0,2.22,0,8.27.04,15.35,6.38,15.78,14.64.02.29.02.58.02.87Z"/>
    <path id="_3_tax" data-name="3 tax" class="cls-1" d="m636.95,548.28c0,1.06-.11,2.09-.33,3.08-1.13,5.19-5.51,9.08-10.78,9.81-2.42.34-4.82.7-7.21,1.08-52.73,8.43-98.99,27.5-133.07,54.02-2.32,1.8-5.32-1.2-3.51-3.52,28.9-37.19,75.59-64.34,130.9-75.4,2.96-.6,5.95-1.14,8.96-1.64,7.49-1.24,14.61,4.23,15.01,11.81.01.25.02.51.02.76Z"/>
    <circle class="cls-1" cx="420.19" cy="655.46" r="24.25"/>
    <path class="cls-1" d="m435.16,485.05c0,44.14-2.76,86.03-12,123.67-.83,3.38-5.8,2.87-5.93-.61-.62-16.28-3.98-33.11-5.3-50.46-4.08-53.3-10.28-100.61-18.31-142.13-.53-2.73-1.06-5.44-1.6-8.12-.33-1.63-.66-3.24-1-4.84-1.97-9.43,3.36-19.04,12.55-21.9.28-.09.56-.17.85-.24.03,0,.06-.01.08-.02,1.57-.38,3.21-.59,4.9-.59,4.26.02,8.19,1.43,11.36,3.81.16.12.33.25.49.39,3.38,2.8,5.77,6.81,6.54,11.37.23,1.35.45,2.69.66,4.05.48,2.91.91,5.83,1.33,8.77,3.51,24.52,5.38,50.28,5.38,76.87Z"/>
  </g>
  <g>
    <path class="cls-1" d="m779.76,552.36c-3.87-3.45-5.81-7.7-5.81-12.75s1.93-9.38,5.81-13c3.87-3.62,8.58-5.43,14.14-5.43s10.31,1.81,14.27,5.43c3.95,3.62,5.93,7.95,5.93,13s-1.94,9.09-5.81,12.62c-3.87,3.53-8.67,5.3-14.39,5.3s-10.27-1.72-14.14-5.18Zm31.06,147.83h-33.58v-123.22h33.58v123.22Z"/>
    <path class="cls-1" d="m856.26,521.18h36.11v147.96h96.96v31.06h-133.06v-179.02Z"/>
    <path class="cls-1" d="m1110.02,660.56l15.91,21.46c-7.07,5.39-15.82,9.76-26.26,13.13-10.44,3.37-21.04,5.05-31.81,5.05-20.03,0-35.77-6.19-47.22-18.56-11.45-12.37-17.17-27.65-17.17-45.83s6.19-34.67,18.56-47.47c12.37-12.79,27.98-19.19,46.84-19.19,16.83,0,31.35,5.35,43.56,16.03,12.2,10.69,18.31,26.56,18.31,47.59,0,3.03-.17,6.48-.5,10.35h-93.67c1.52,9.09,5.3,16.37,11.36,21.84,6.06,5.47,14.14,8.21,24.24,8.21,13.97,0,26.59-4.21,37.87-12.62Zm-41.41-65.65c-16.16,0-26.6,8.58-31.31,25.75h59.34c-.17-8.08-3.07-14.39-8.71-18.94-5.64-4.54-12.08-6.82-19.32-6.82Z"/>
    <path class="cls-1" d="m1169.86,608.04l-10.35-25c17.5-8.75,36.69-13.13,57.57-13.13,15.99,0,29.45,3.03,40.4,9.09,10.94,6.06,16.41,15.49,16.41,28.28v65.9c0,8.75,1.18,16.75,3.53,23.99h-33.33c-.84-2.69-1.85-7.4-3.03-14.14-5.55,5.39-11.41,9.59-17.55,12.62-6.15,3.03-14.1,4.54-23.86,4.54-14.64,0-26.43-3.95-35.35-11.87-8.92-7.91-13.38-17.93-13.38-30.05s4.84-21.54,14.52-29.29c9.68-7.74,22.85-11.61,39.51-11.61,14.98,0,26.76,3.37,35.35,10.1v-12.37c0-6.23-2.36-10.9-7.07-14.01-4.71-3.11-11.03-4.67-18.94-4.67-7.24,0-15.11,1.22-23.61,3.66-8.5,2.44-15.45,5.09-20.83,7.95Zm37.12,67.42c12.45,0,23.56-4.54,33.33-13.63v-11.87c-6.9-5.89-16.41-8.84-28.53-8.84-9.43,0-16.33,1.6-20.7,4.8-4.38,3.2-6.56,7.32-6.56,12.37s1.98,9.39,5.93,12.5c3.95,3.12,9.47,4.67,16.54,4.67Z"/>
    <path class="cls-1" d="m1367.05,605.26c-4.04,0-7.54,1.26-10.48,3.79-2.95,2.53-6.53,6.48-10.73,11.87v79.28h-33.83v-88.37c0-10.43-1.18-22.05-3.53-34.84h30.8c1.18,6.4,2.02,12.54,2.52,18.43,4.38-7.24,9-12.79,13.89-16.66,4.88-3.87,11.02-5.81,18.43-5.81,8.25,0,14.56,1.68,18.94,5.05l-9.34,30.8c-5.89-2.36-11.45-3.53-16.66-3.53Z"/>
    <path class="cls-1" d="m1443.05,593.14c11.28-13.46,25.08-20.2,41.41-20.2,12.62,0,23.27,4.21,31.94,12.62,8.67,8.42,13,19.02,13,31.81v82.82h-33.83v-81.55c0-4.71-1.94-8.75-5.81-12.12-3.87-3.37-8.75-5.05-14.64-5.05-9.26,0-18.68,5.3-28.28,15.91v82.82h-33.58v-88.12c0-11.78-1.18-23.48-3.53-35.1h30.8c1.35,6.06,2.19,11.45,2.52,16.16Z"/>
  </g>
</svg>